<?xml version="1.0" encoding="UTF-8"?>
<svg version="1.2" baseProfile="tiny-ps" viewBox="0 0 392 392" xmlns="http://www.w3.org/2000/svg" xmlns:xlink="http://www.w3.org/1999/xlink"><title>Your Brand/Organsqization</title><g><g transform="matrix(.1 0 0 -.1 0 392)" fill="#af3b34"><path d="M0 1960V0h3920v3920H0V1960z"/></g><g transform="matrix(.1 0 0 -.1 0 392)" fill="#7b2924"><path d="M0 1960V0h3920v3920H0V1960zm2342 1556c152-72 317-149 433-200 74-33 421-149 733-246 74-23 132-43 130-45-1-2-50-23-108-48-177-76-632-273-680-295-25-11-62-27-82-35l-37-16-19 32c-18 30-74 128-391 685-111 197-129 232-116 232 2 0 64-29 137-64zm-195-161c9-33 53-157 97-275l80-215v-170c1-93-3-191-7-216l-8-46-132-66c-143-72-344-178-392-207-16-9-52-30-79-44l-49-27 7 53c4 29 23 105 41 168 201 681 220 740 285 885 14 33 49 113 76 178l49 118 7-38c4-21 15-65 25-98zm506-905c19-47 78-186 130-310 53-124 120-283 150-355 30-71 54-132 52-133-3-4-57 15-265 91-52 19-284 103-515 187s-431 158-444 165l-24 12 124 59c166 78 565 280 664 337l80 46 6-7c3-4 22-45 42-92zm-248-621c143-50 328-113 410-141 83-28 153-54 158-58l7-6-450-222-451-222-10 5c-7 5-109 210-109 220 0 3-202 452-275 610l-23 50 11 6 10 7 231-80c127-44 348-120 491-169zm-702 109c14-29 34-73 45-98s37-81 57-125 32-75 27-70c-20 21-189 334-184 340 3 3 11 5 17 5h13l25-52zm50-189c63-112 129-231 147-264 43-76 86-164 94-191l6-21-32-10c-25-9-282-112-447-180l-14-6 7 64c6 59 30 248 57 444 5 44 14 112 19 150 5 39 15 107 21 153l12 83 8-8c5-5 60-101 122-214zm-162 119c-6-40-23-158-37-263-13-104-29-224-35-265-5-41-15-115-22-164l-12-89-10-4c-5-1-69 41-141 95-73 53-207 153-299 221l-167 123 9 8c17 16 717 420 721 416 2-3-1-37-7-78zm1375-375c-3-10-32-120-65-246-65-244-92-334-141-467-32-87-50-132-165-402l-67-158-18 23c-9 12-19 27-21 32-2 6-30 49-62 96l-58 86-39 93-38 93 20 16 19 16 14 90c7 50 18 153 25 230 6 77 16 157 22 178l12 39 44 43 45 44 86 44c103 53 357 163 384 166l8 1-5-17z"/></g><g transform="matrix(.1 0 0 -.1 0 392)" fill="#000000"><path d="M0 1960V0h3920v3920H0V1960zm2372 1551c91-44 236-112 323-150l157-71 322-104c176-58 354-115 394-128l74-23v-9c0-5-52-31-114-58s-223-97-358-155c-347-150-402-174-429-184l-23-9 10-13c5-6 80-148 166-315l156-302-51-110-52-110 23-52c12-29 24-68 26-85l4-33-40-157c-74-288-140-521-174-615-34-97-171-432-226-552l-31-70-12 15c-7 8-46 64-86 126l-73 111-114 284c-64 155-127 312-141 348s-32 72-39 80-20 34-29 58c-10 23-21 42-26 42s-118-44-251-99l-243-98-41-2-41-2-189 36c-104 20-234 45-289 55-183 35-569 109-628 121l-57 12 10 12c5 6 8 14 5 17s20 27 52 54c32 26 118 99 190 162l133 113 142 78c79 43 188 102 243 131s132 70 170 90c325 174 412 221 425 228l15 9 22 64c12 35 70 226 129 423l106 360 116 270c63 149 119 276 124 283l9 11 23-4c12-2 97-40 188-83zm148-984c-269-128-760-382-760-392 0-9 121 47 360 166 245 122 460 237 460 245 0 7-15 3-60-19z"/></g></g></svg>