<svg xmlns="http://www.w3.org/2000/svg" version="1.1" width="1800px" height="900px" style="shape-rendering:geometricPrecision; text-rendering:geometricPrecision; image-rendering:optimizeQuality; fill-rule:evenodd; clip-rule:evenodd" xmlns:xlink="http://www.w3.org/1999/xlink">

<g><path style="opacity:1" fill="#ae3b33" d="M 1071.5,191.5 C 1076.83,191.5 1082.17,191.5 1087.5,191.5C 1087.5,363.5 1087.5,535.5 1087.5,707.5C 1082.17,707.5 1076.83,707.5 1071.5,707.5C 1071.5,535.5 1071.5,363.5 1071.5,191.5 Z"/></g>
<g><path style="opacity:1" fill="#ae3b33" d="M 1191.5,191.5 C 1196.83,191.5 1202.17,191.5 1207.5,191.5C 1207.5,363.5 1207.5,535.5 1207.5,707.5C 1202.17,707.5 1196.83,707.5 1191.5,707.5C 1191.5,535.5 1191.5,363.5 1191.5,191.5 Z"/></g>
<g><path style="opacity:1" fill="#ae3b33" d="M 1023.5,197.5 C 1028.83,197.5 1034.17,197.5 1039.5,197.5C 1039.5,365.5 1039.5,533.5 1039.5,701.5C 1034.17,701.5 1028.83,701.5 1023.5,701.5C 1023.5,533.5 1023.5,365.5 1023.5,197.5 Z"/></g>
<g><path style="opacity:1" fill="#ae3b33" d="M 1143.5,207.5 C 1148.83,207.5 1154.17,207.5 1159.5,207.5C 1159.5,368.833 1159.5,530.167 1159.5,691.5C 1154.17,691.5 1148.83,691.5 1143.5,691.5C 1143.5,530.167 1143.5,368.833 1143.5,207.5 Z"/></g>
<g><path style="opacity:1" fill="#ae3b33" d="M 999.5,211.5 C 1004.83,211.5 1010.17,211.5 1015.5,211.5C 1015.5,370.167 1015.5,528.833 1015.5,687.5C 1010.17,687.5 1004.83,687.5 999.5,687.5C 999.5,528.833 999.5,370.167 999.5,211.5 Z"/></g>
<g><path style="opacity:1" fill="#ae3b33" d="M 1167.5,211.5 C 1172.83,211.5 1178.17,211.5 1183.5,211.5C 1183.5,370.167 1183.5,528.833 1183.5,687.5C 1178.17,687.5 1172.83,687.5 1167.5,687.5C 1167.5,528.833 1167.5,370.167 1167.5,211.5 Z"/></g>
<g><path style="opacity:1" fill="#ae3b33" d="M 1095.5,215.5 C 1100.83,215.5 1106.17,215.5 1111.5,215.5C 1111.5,371.5 1111.5,527.5 1111.5,683.5C 1106.17,683.5 1100.83,683.5 1095.5,683.5C 1095.5,527.5 1095.5,371.5 1095.5,215.5 Z"/></g>
<g><path style="opacity:1" fill="#ae3b33" d="M 1119.5,215.5 C 1124.83,215.5 1130.17,215.5 1135.5,215.5C 1135.5,371.5 1135.5,527.5 1135.5,683.5C 1130.17,683.5 1124.83,683.5 1119.5,683.5C 1119.5,527.5 1119.5,371.5 1119.5,215.5 Z"/></g>
<g><path style="opacity:1" fill="#ae3b33" d="M 1215.5,215.5 C 1220.83,215.5 1226.17,215.5 1231.5,215.5C 1231.5,371.5 1231.5,527.5 1231.5,683.5C 1226.17,683.5 1220.83,683.5 1215.5,683.5C 1215.5,527.5 1215.5,371.5 1215.5,215.5 Z"/></g>
<g><path style="opacity:1" fill="#ae3b33" d="M 1047.5,223.5 C 1052.83,223.5 1058.17,223.5 1063.5,223.5C 1063.5,374.167 1063.5,524.833 1063.5,675.5C 1058.17,675.5 1052.83,675.5 1047.5,675.5C 1047.5,524.833 1047.5,374.167 1047.5,223.5 Z"/></g>
<g><path style="opacity:1" fill="#ae3b33" d="M 831.5,227.5 C 836.833,227.5 842.167,227.5 847.5,227.5C 847.5,375.5 847.5,523.5 847.5,671.5C 842.167,671.5 836.833,671.5 831.5,671.5C 831.5,523.5 831.5,375.5 831.5,227.5 Z"/></g>
<g><path style="opacity:1" fill="#ae3b33" d="M 903.5,231.5 C 908.833,231.5 914.167,231.5 919.5,231.5C 919.5,376.833 919.5,522.167 919.5,667.5C 914.167,667.5 908.833,667.5 903.5,667.5C 903.5,522.167 903.5,376.833 903.5,231.5 Z"/></g>
<g><path style="opacity:1" fill="#ae3b33" d="M 975.5,231.5 C 980.833,231.5 986.167,231.5 991.5,231.5C 991.5,376.833 991.5,522.167 991.5,667.5C 986.167,667.5 980.833,667.5 975.5,667.5C 975.5,522.167 975.5,376.833 975.5,231.5 Z"/></g>
<g><path style="opacity:1" fill="#ae3b33" d="M 1263.5,245.5 C 1268.83,245.5 1274.17,245.5 1279.5,245.5C 1279.5,381.5 1279.5,517.5 1279.5,653.5C 1274.17,653.5 1268.83,653.5 1263.5,653.5C 1263.5,517.5 1263.5,381.5 1263.5,245.5 Z"/></g>
<g><path style="opacity:1" fill="#ae3b33" d="M 927.5,249.5 C 932.833,249.5 938.167,249.5 943.5,249.5C 943.5,382.833 943.5,516.167 943.5,649.5C 938.167,649.5 932.833,649.5 927.5,649.5C 927.5,516.167 927.5,382.833 927.5,249.5 Z"/></g>
<g><path style="opacity:1" fill="#ae3b33" d="M 879.5,259.5 C 884.833,259.5 890.167,259.5 895.5,259.5C 895.5,386.167 895.5,512.833 895.5,639.5C 890.167,639.5 884.833,639.5 879.5,639.5C 879.5,512.833 879.5,386.167 879.5,259.5 Z"/></g>
<g><path style="opacity:1" fill="#ae3b33" d="M 951.5,261.5 C 956.833,261.5 962.167,261.5 967.5,261.5C 967.5,386.833 967.5,512.167 967.5,637.5C 962.167,637.5 956.833,637.5 951.5,637.5C 951.5,512.167 951.5,386.833 951.5,261.5 Z"/></g>
<g><path style="opacity:1" fill="#ae3b33" d="M 1239.5,265.5 C 1244.83,265.5 1250.17,265.5 1255.5,265.5C 1255.5,388.167 1255.5,510.833 1255.5,633.5C 1250.17,633.5 1244.83,633.5 1239.5,633.5C 1239.5,510.833 1239.5,388.167 1239.5,265.5 Z"/></g>
<g><path style="opacity:1" fill="#ae3b33" d="M 639.5,275.5 C 644.833,275.5 650.167,275.5 655.5,275.5C 655.5,391.5 655.5,507.5 655.5,623.5C 650.167,623.5 644.833,623.5 639.5,623.5C 639.5,507.5 639.5,391.5 639.5,275.5 Z"/></g>
<g><path style="opacity:1" fill="#ae3b33" d="M 855.5,279.5 C 860.833,279.5 866.167,279.5 871.5,279.5C 871.5,392.833 871.5,506.167 871.5,619.5C 866.167,619.5 860.833,619.5 855.5,619.5C 855.5,506.167 855.5,392.833 855.5,279.5 Z"/></g>
<g><path style="opacity:1" fill="#ae3b33" d="M 567.5,283.5 C 572.833,283.5 578.167,283.5 583.5,283.5C 583.5,394.167 583.5,504.833 583.5,615.5C 578.167,615.5 572.833,615.5 567.5,615.5C 567.5,504.833 567.5,394.167 567.5,283.5 Z"/></g>
<g><path style="opacity:1" fill="#ae3b33" d="M 1335.5,289.5 C 1340.83,289.5 1346.17,289.5 1351.5,289.5C 1351.5,396.167 1351.5,502.833 1351.5,609.5C 1346.17,609.5 1340.83,609.5 1335.5,609.5C 1335.5,502.833 1335.5,396.167 1335.5,289.5 Z"/></g>
<g><path style="opacity:1" fill="#ae3b33" d="M 519.5,291.5 C 524.833,291.5 530.167,291.5 535.5,291.5C 535.5,396.833 535.5,502.167 535.5,607.5C 530.167,607.5 524.833,607.5 519.5,607.5C 519.5,502.167 519.5,396.833 519.5,291.5 Z"/></g>
<g><path style="opacity:1" fill="#ae3b33" d="M 663.5,291.5 C 668.833,291.5 674.167,291.5 679.5,291.5C 679.5,396.833 679.5,502.167 679.5,607.5C 674.167,607.5 668.833,607.5 663.5,607.5C 663.5,502.167 663.5,396.833 663.5,291.5 Z"/></g>
<g><path style="opacity:1" fill="#ae3b33" d="M 807.5,291.5 C 812.833,291.5 818.167,291.5 823.5,291.5C 823.5,396.833 823.5,502.167 823.5,607.5C 818.167,607.5 812.833,607.5 807.5,607.5C 807.5,502.167 807.5,396.833 807.5,291.5 Z"/></g>
<g><path style="opacity:1" fill="#ae3b33" d="M 495.5,295.5 C 500.833,295.5 506.167,295.5 511.5,295.5C 511.5,398.167 511.5,500.833 511.5,603.5C 506.167,603.5 500.833,603.5 495.5,603.5C 495.5,500.833 495.5,398.167 495.5,295.5 Z"/></g>
<g><path style="opacity:1" fill="#ae3b33" d="M 591.5,297.5 C 596.833,297.5 602.167,297.5 607.5,297.5C 607.5,398.833 607.5,500.167 607.5,601.5C 602.167,601.5 596.833,601.5 591.5,601.5C 591.5,500.167 591.5,398.833 591.5,297.5 Z"/></g>
<g><path style="opacity:1" fill="#ae3b33" d="M 447.5,299.5 C 452.833,299.5 458.167,299.5 463.5,299.5C 463.5,399.5 463.5,499.5 463.5,599.5C 458.167,599.5 452.833,599.5 447.5,599.5C 447.5,499.5 447.5,399.5 447.5,299.5 Z"/></g>
<g><path style="opacity:1" fill="#ae3b33" d="M 1599.5,299.5 C 1604.83,299.5 1610.17,299.5 1615.5,299.5C 1615.5,399.5 1615.5,499.5 1615.5,599.5C 1610.17,599.5 1604.83,599.5 1599.5,599.5C 1599.5,499.5 1599.5,399.5 1599.5,299.5 Z"/></g>
<g><path style="opacity:1" fill="#ae3b33" d="M 615.5,301.5 C 620.833,301.5 626.167,301.5 631.5,301.5C 631.5,400.167 631.5,498.833 631.5,597.5C 626.167,597.5 620.833,597.5 615.5,597.5C 615.5,498.833 615.5,400.167 615.5,301.5 Z"/></g>
<g><path style="opacity:1" fill="#ae3b33" d="M 543.5,303.5 C 548.833,303.5 554.167,303.5 559.5,303.5C 559.5,400.833 559.5,498.167 559.5,595.5C 554.167,595.5 548.833,595.5 543.5,595.5C 543.5,498.167 543.5,400.833 543.5,303.5 Z"/></g>
<g><path style="opacity:1" fill="#ae3b33" d="M 471.5,305.5 C 476.833,305.5 482.167,305.5 487.5,305.5C 487.5,401.5 487.5,497.5 487.5,593.5C 482.167,593.5 476.833,593.5 471.5,593.5C 471.5,497.5 471.5,401.5 471.5,305.5 Z"/></g>
<g><path style="opacity:1" fill="#ae3b33" d="M 687.5,311.5 C 692.833,311.5 698.167,311.5 703.5,311.5C 703.5,403.5 703.5,495.5 703.5,587.5C 698.167,587.5 692.833,587.5 687.5,587.5C 687.5,495.5 687.5,403.5 687.5,311.5 Z"/></g>
<g><path style="opacity:1" fill="#ae3b33" d="M 1287.5,323.5 C 1292.83,323.5 1298.17,323.5 1303.5,323.5C 1303.5,407.5 1303.5,491.5 1303.5,575.5C 1298.17,575.5 1292.83,575.5 1287.5,575.5C 1287.5,491.5 1287.5,407.5 1287.5,323.5 Z"/></g>
<g><path style="opacity:1" fill="#ae3b33" d="M 1311.5,325.5 C 1316.83,325.5 1322.17,325.5 1327.5,325.5C 1327.5,408.167 1327.5,490.833 1327.5,573.5C 1322.17,573.5 1316.83,573.5 1311.5,573.5C 1311.5,490.833 1311.5,408.167 1311.5,325.5 Z"/></g>
<g><path style="opacity:1" fill="#ae3b33" d="M 711.5,333.5 C 716.833,333.5 722.167,333.5 727.5,333.5C 727.5,410.833 727.5,488.167 727.5,565.5C 722.167,565.5 716.833,565.5 711.5,565.5C 711.5,488.167 711.5,410.833 711.5,333.5 Z"/></g>
<g><path style="opacity:1" fill="#ae3b33" d="M 759.5,333.5 C 764.833,333.5 770.167,333.5 775.5,333.5C 775.5,410.833 775.5,488.167 775.5,565.5C 770.167,565.5 764.833,565.5 759.5,565.5C 759.5,488.167 759.5,410.833 759.5,333.5 Z"/></g>
<g><path style="opacity:1" fill="#ae3b33" d="M 327.5,339.5 C 332.833,339.5 338.167,339.5 343.5,339.5C 343.5,412.833 343.5,486.167 343.5,559.5C 338.167,559.5 332.833,559.5 327.5,559.5C 327.5,486.167 327.5,412.833 327.5,339.5 Z"/></g>
<g><path style="opacity:1" fill="#ae3b33" d="M 375.5,351.5 C 380.833,351.5 386.167,351.5 391.5,351.5C 391.5,416.833 391.5,482.167 391.5,547.5C 386.167,547.5 380.833,547.5 375.5,547.5C 375.5,482.167 375.5,416.833 375.5,351.5 Z"/></g>
<g><path style="opacity:1" fill="#ae3b33" d="M 1455.5,355.5 C 1460.83,355.5 1466.17,355.5 1471.5,355.5C 1471.5,418.167 1471.5,480.833 1471.5,543.5C 1466.17,543.5 1460.83,543.5 1455.5,543.5C 1455.5,480.833 1455.5,418.167 1455.5,355.5 Z"/></g>
<g><path style="opacity:1" fill="#ae3b33" d="M 399.5,357.5 C 404.833,357.5 410.167,357.5 415.5,357.5C 415.5,418.833 415.5,480.167 415.5,541.5C 410.167,541.5 404.833,541.5 399.5,541.5C 399.5,480.167 399.5,418.833 399.5,357.5 Z"/></g>
<g><path style="opacity:1" fill="#ae3b33" d="M 735.5,359.5 C 740.833,359.5 746.167,359.5 751.5,359.5C 751.5,419.5 751.5,479.5 751.5,539.5C 746.167,539.5 740.833,539.5 735.5,539.5C 735.5,479.5 735.5,419.5 735.5,359.5 Z"/></g>
<g><path style="opacity:1" fill="#ae3b33" d="M 1359.5,365.5 C 1364.83,365.5 1370.17,365.5 1375.5,365.5C 1375.5,421.5 1375.5,477.5 1375.5,533.5C 1370.17,533.5 1364.83,533.5 1359.5,533.5C 1359.5,477.5 1359.5,421.5 1359.5,365.5 Z"/></g>
<g><path style="opacity:1" fill="#ae3b33" d="M 423.5,375.5 C 428.833,375.5 434.167,375.5 439.5,375.5C 439.5,424.833 439.5,474.167 439.5,523.5C 434.167,523.5 428.833,523.5 423.5,523.5C 423.5,474.167 423.5,424.833 423.5,375.5 Z"/></g>
<g><path style="opacity:1" fill="#ae3b33" d="M 351.5,379.5 C 356.833,379.5 362.167,379.5 367.5,379.5C 367.5,426.167 367.5,472.833 367.5,519.5C 362.167,519.5 356.833,519.5 351.5,519.5C 351.5,472.833 351.5,426.167 351.5,379.5 Z"/></g>
<g><path style="opacity:1" fill="#ae3b33" d="M 1383.5,381.5 C 1388.83,381.5 1394.17,381.5 1399.5,381.5C 1399.5,426.833 1399.5,472.167 1399.5,517.5C 1394.17,517.5 1388.83,517.5 1383.5,517.5C 1383.5,472.167 1383.5,426.833 1383.5,381.5 Z"/></g>
<g><path style="opacity:1" fill="#ae3b33" d="M 1431.5,385.5 C 1436.83,385.5 1442.17,385.5 1447.5,385.5C 1447.5,428.167 1447.5,470.833 1447.5,513.5C 1442.17,513.5 1436.83,513.5 1431.5,513.5C 1431.5,470.833 1431.5,428.167 1431.5,385.5 Z"/></g>
<g><path style="opacity:1" fill="#ae3b33" d="M 1527.5,387.5 C 1532.83,387.5 1538.17,387.5 1543.5,387.5C 1543.5,428.833 1543.5,470.167 1543.5,511.5C 1538.17,511.5 1532.83,511.5 1527.5,511.5C 1527.5,470.167 1527.5,428.833 1527.5,387.5 Z"/></g>
<g><path style="opacity:1" fill="#ae3b33" d="M 783.5,389.5 C 788.833,389.5 794.167,389.5 799.5,389.5C 799.5,429.5 799.5,469.5 799.5,509.5C 794.167,509.5 788.833,509.5 783.5,509.5C 783.5,469.5 783.5,429.5 783.5,389.5 Z"/></g>
<g><path style="opacity:1" fill="#ae3b33" d="M 303.5,391.5 C 308.833,391.5 314.167,391.5 319.5,391.5C 319.5,430.167 319.5,468.833 319.5,507.5C 314.167,507.5 308.833,507.5 303.5,507.5C 303.5,468.833 303.5,430.167 303.5,391.5 Z"/></g>
<g><path style="opacity:1" fill="#ae3b33" d="M 1503.5,393.5 C 1508.83,393.5 1514.17,393.5 1519.5,393.5C 1519.5,430.833 1519.5,468.167 1519.5,505.5C 1514.17,505.5 1508.83,505.5 1503.5,505.5C 1503.5,468.167 1503.5,430.833 1503.5,393.5 Z"/></g>
<g><path style="opacity:1" fill="#ae3b33" d="M 1575.5,393.5 C 1580.83,393.5 1586.17,393.5 1591.5,393.5C 1591.5,430.833 1591.5,468.167 1591.5,505.5C 1586.17,505.5 1580.83,505.5 1575.5,505.5C 1575.5,468.167 1575.5,430.833 1575.5,393.5 Z"/></g>
<g><path style="opacity:1" fill="#ae3b33" d="M 1479.5,407.5 C 1484.83,407.5 1490.17,407.5 1495.5,407.5C 1495.5,435.5 1495.5,463.5 1495.5,491.5C 1490.17,491.5 1484.83,491.5 1479.5,491.5C 1479.5,463.5 1479.5,435.5 1479.5,407.5 Z"/></g>
<g><path style="opacity:1" fill="#ae3b33" d="M 1551.5,407.5 C 1556.83,407.5 1562.17,407.5 1567.5,407.5C 1567.5,435.5 1567.5,463.5 1567.5,491.5C 1562.17,491.5 1556.83,491.5 1551.5,491.5C 1551.5,463.5 1551.5,435.5 1551.5,407.5 Z"/></g>
<g><path style="opacity:1" fill="#ae3b33" d="M 1407.5,409.5 C 1412.83,409.5 1418.17,409.5 1423.5,409.5C 1423.5,436.167 1423.5,462.833 1423.5,489.5C 1418.17,489.5 1412.83,489.5 1407.5,489.5C 1407.5,462.833 1407.5,436.167 1407.5,409.5 Z"/></g>
<g><path style="opacity:1" fill="#ae3b33" d="M 255.5,435.5 C 260.833,435.5 266.167,435.5 271.5,435.5C 271.5,444.833 271.5,454.167 271.5,463.5C 266.167,463.5 260.833,463.5 255.5,463.5C 255.5,454.167 255.5,444.833 255.5,435.5 Z"/></g>
<g><path style="opacity:1" fill="#ae3b33" d="M 279.5,437.5 C 284.833,437.5 290.167,437.5 295.5,437.5C 295.5,445.5 295.5,453.5 295.5,461.5C 290.167,461.5 284.833,461.5 279.5,461.5C 279.5,453.5 279.5,445.5 279.5,437.5 Z"/></g>
<g><path style="opacity:1" fill="#ae3b33" d="M 183.5,441.5 C 188.833,441.5 194.167,441.5 199.5,441.5C 199.5,446.833 199.5,452.167 199.5,457.5C 194.167,457.5 188.833,457.5 183.5,457.5C 183.5,452.167 183.5,446.833 183.5,441.5 Z"/></g>
<g><path style="opacity:1" fill="#ae3b33" d="M 207.5,445.5 C 212.833,445.5 218.167,445.5 223.5,445.5C 223.5,448.167 223.5,450.833 223.5,453.5C 218.167,453.5 212.833,453.5 207.5,453.5C 207.5,450.833 207.5,448.167 207.5,445.5 Z"/></g>
<g><path style="opacity:1" fill="#ae3b33" d="M 231.5,447.5 C 236.833,447.5 242.167,447.5 247.5,447.5C 247.5,448.833 247.5,450.167 247.5,451.5C 242.167,451.5 236.833,451.5 231.5,451.5C 231.5,450.167 231.5,448.833 231.5,447.5 Z"/></g>
</svg>